<svg xmlns="http://www.w3.org/2000/svg" xmlns:xlink="http://www.w3.org/1999/xlink" width="42" height="24" viewBox="0 0 42 24">
    <defs>
        <path id="a" d="M50.837 20h-7.958a2.199 2.199 0 0 0-1.537.616l-.514.504a2.99 2.99 0 0 1-4.153 0l-.515-.505A2.194 2.194 0 0 0 34.626 20H13.163a2.17 2.17 0 0 0-1.526.617 2.113 2.113 0 0 0-.637 1.5v19.765c.005 1.175.973 2.123 2.163 2.118h21.463a2.194 2.194 0 0 0 1.534-.615l.515-.505a2.99 2.99 0 0 1 4.153 0l.514.504c.41.397.962.618 1.537.616h7.958c1.19.005 2.158-.943 2.163-2.118V22.118a2.113 2.113 0 0 0-.637-1.501A2.17 2.17 0 0 0 50.837 20zm-33.758 6.436h5.526a.665.665 0 0 1 .595.32.647.647 0 0 1 0 .669.665.665 0 0 1-.595.32H17.08a.665.665 0 0 1-.594-.32.647.647 0 0 1 0-.669.665.665 0 0 1 .594-.32zm0 5.455h5.526a.665.665 0 0 1 .595.32.647.647 0 0 1 0 .668.665.665 0 0 1-.595.32H17.08a.665.665 0 0 1-.594-.32.647.647 0 0 1 0-.668.665.665 0 0 1 .594-.32zm15.474 6.764H17.079a.665.665 0 0 1-.594-.32.647.647 0 0 1 0-.669.665.665 0 0 1 .594-.32h15.474a.665.665 0 0 1 .594.32.647.647 0 0 1 0 .669.665.665 0 0 1-.594.32zm7.184-1.104a1.093 1.093 0 0 1-1.105 1.075 1.093 1.093 0 0 1-1.095-1.086c0-.597.49-1.083 1.095-1.086.605-.002 1.099.478 1.105 1.075v.022zm0-5.546a1.093 1.093 0 0 1-1.105 1.075 1.093 1.093 0 0 1-1.095-1.085c0-.598.49-1.083 1.095-1.086.605-.003 1.099.478 1.105 1.075v.021zm0-5.545a1.093 1.093 0 0 1-1.105 1.075 1.093 1.093 0 0 1-1.095-1.086c0-.597.49-1.083 1.095-1.085.605-.003 1.099.477 1.105 1.075v.02zm8.29 12.195h-4.422a.665.665 0 0 1-.594-.32.647.647 0 0 1 0-.669.665.665 0 0 1 .594-.32h4.421a.665.665 0 0 1 .595.32.647.647 0 0 1 0 .669.665.665 0 0 1-.595.32zm0-5.455h-4.422a.665.665 0 0 1-.594-.32.647.647 0 0 1 0-.668.665.665 0 0 1 .594-.32h4.421a.665.665 0 0 1 .595.32.647.647 0 0 1 0 .668.665.665 0 0 1-.595.32z"/>
    </defs>
    <g fill="none" fill-rule="evenodd" transform="translate(-11 -20)">
        <path fill="#FFF" fill-opacity="0" d="M0 0h64v64H0z"/>
        <use fill="#1F8226" fill-rule="nonzero" xlink:href="#a"/>
    </g>
</svg>
