<svg xmlns="http://www.w3.org/2000/svg" xmlns:xlink="http://www.w3.org/1999/xlink" width="48" height="30" viewBox="0 0 48 30">
    <defs>
        <path id="a" d="M24.47 47h10.344l-5.425-8.275L24.469 47zm31.364-1.798L41.738 21.496a1.223 1.223 0 0 0-1.052-.593c-.433 0-.834.226-1.052.593l-9.418 15.84L36.552 47h18.23c.436 0 .839-.229 1.056-.6a1.176 1.176 0 0 0-.004-1.198zM25.009 32.044a1.224 1.224 0 0 0-1.025-.548c-.414 0-.8.206-1.025.548l-8.598 13.114a1.176 1.176 0 0 0-.044 1.22c.213.383.623.622 1.069.622h7.39l5.725-9.63-3.492-5.326zm-5.686-6.89c.136.2.364.32.608.32.245 0 .473-.12.608-.32l4.568-6.72h5.534a.724.724 0 0 0 .705-.717.724.724 0 0 0-.705-.717h-5.926a.735.735 0 0 0-.608.32l-4.176 6.143-4.174-6.144a.735.735 0 0 0-.608-.319H8.712a.724.724 0 0 0-.712.717c0 .389.316.707.712.717h6.045l4.566 6.72z"/>
    </defs>
    <g fill="none" fill-rule="evenodd" transform="translate(-8 -17)">
        <path fill="#FFF" fill-opacity="0" d="M0 0h64v64H0z"/>
        <use fill="#1F8226" fill-rule="nonzero" xlink:href="#a"/>
    </g>
</svg>
