<?xml version="1.0" encoding="UTF-8"?>
<svg xmlns="http://www.w3.org/2000/svg" xmlns:xlink="http://www.w3.org/1999/xlink" width="40pt" height="30pt" viewBox="0 0 40 30" version="1.1">
<g id="surface2">
<path style=" stroke:none;fill-rule:nonzero;fill:rgb(12.156863%,50.980392%,15.294118%);fill-opacity:1;" d="M 39.722656 12.109375 C 38.945312 9.109375 35.832031 7.222656 32.722656 7.890625 C 32.609375 7.890625 32.5 8 32.167969 8 L 28.167969 9.332031 L 26.945312 9.777344 C 26.277344 10 25.390625 9.890625 24.722656 9.667969 L 16.054688 4.890625 C 14.390625 3.777344 12.167969 3.332031 10.277344 4.109375 L 8.054688 4.890625 C 7.945312 5 7.832031 5.222656 7.945312 5.554688 C 7.945312 5.667969 7.945312 5.667969 8.054688 5.777344 L 17.167969 12.890625 C 17.277344 13 17.277344 13.109375 17.167969 13.332031 L 17.054688 13.445312 L 13.167969 14.777344 C 10.945312 15.445312 8.5 15 6.609375 13.667969 L 4.609375 12.445312 C 4.167969 12.222656 3.832031 12.222656 3.390625 12.332031 L 0.5 13.667969 C 0.390625 13.667969 0.277344 13.890625 0.277344 14.222656 L 0.277344 14.332031 L 6.277344 21.445312 C 6.722656 22 7.054688 22.109375 7.945312 22.109375 L 13.722656 22.109375 C 14.5 22.109375 15.390625 22 16.167969 21.667969 L 32.277344 15.777344 L 39.722656 13.332031 C 39.945312 13.222656 39.945312 13.109375 39.945312 12.777344 Z M 39.722656 12.109375 "/>
</g>
</svg>
