<?xml version="1.0" encoding="UTF-8" standalone="no"?>
<svg width="1324px" height="388px" viewBox="70 90 1357 398" version="1.1" xmlns="http://www.w3.org/2000/svg" xmlns:xlink="http://www.w3.org/1999/xlink">
    <!-- Generator: Sketch 41.2 (35397) - http://www.bohemiancoding.com/sketch -->
    <title>logo/wideroe-logo</title>
    <desc>Created with Sketch.</desc>
    <defs></defs>
    <g id="Page-1" stroke="none" stroke-width="1" fill="none" fill-rule="evenodd">
        <g id="logo/wideroe-logo">
            <g id="logo">
                <polyline id="Fill-1" points="1495.40515 0.799583548 1495.40515 589.359002 0.271755441 589.359002 0.271755441 0.799583548"></polyline>
                <polyline id="Stroke-2" points="1495.40515 0.799583548 1495.40515 589.359002 0.271755441 589.359002 0.271755441 0.799583548"></polyline>
                <path d="M858.592976,168.948461 C877.334576,187.949093 898.786381,212.48119 921.923686,243.599277 C958.391756,194.57343 982.295196,160.330112 999.561984,147.63746 C1016.84793,134.925635 1072.80458,118.484625 1171.35839,101.823123 C1023.1877,115.263529 916.503274,123.555934 894.40983,135.67339 C886.317519,140.131157 873.456013,152.239026 858.592976,168.948461 Z" id="Fill-3" fill="#54A742"></path>
                <path d="M812.462017,128.282125 C788.481963,110.882455 652.828022,100.375547 480.792202,96.1670315 C563.13266,108.504979 668.572115,126.201834 698.911097,145.355851 C723.063532,160.560191 749.370724,189.128244 794.227982,241.068416 L921.923686,243.599277 C876.099181,181.976644 836.853869,146.065259 812.462017,128.282125" id="Fill-4" fill="#005C3F"></path>
                <path d="M1181.7108,301.67487 C1166.57004,286.096653 1145.29061,279.155958 1112.79687,279.155958 C1080.48509,279.155958 1059.10032,286.067894 1043.60522,301.636524 L1043.50946,301.67487 C1028.9433,317.128462 1023.724,338.055999 1023.724,381.66542 C1023.724,425.294014 1028.9433,446.173618 1043.44242,461.54093 C1059.10032,477.215013 1080.48509,484.174881 1112.79687,484.174881 C1145.29061,484.174881 1166.52215,477.215013 1181.7108,461.617623 C1198.31679,444.56307 1201.46753,420.347331 1201.46753,381.66542 C1201.46753,342.983509 1198.31679,318.758183 1181.7108,301.67487 Z M1112.79687,447.726646 C1101.14203,447.726646 1092.14951,446.566668 1085.12021,444.237126 L1161.75296,342.647978 C1163.96518,352.435891 1164.21417,365.061437 1164.21417,380.898492 C1164.21417,428.419244 1162.23179,447.726646 1112.79687,447.726646 Z M1112.79687,315.268662 C1126.13721,315.268662 1135.97248,316.639545 1143.29866,319.563457 L1064.76015,423.760159 C1061.34127,413.253251 1060.98693,399.06509 1060.98693,380.898492 C1060.98693,334.221361 1062.95973,315.268662 1112.79687,315.268662 L1112.79687,315.268662 Z" id="Fill-5" fill="#005C3F"></path>
                <path d="M821.377924,429.828473 C817.4419,441.955516 803.852565,447.391116 777.420875,447.391116 C733.913932,447.391116 728.254103,431.026798 727.631618,393.965021 L860.98715,393.965021 L860.98715,386.401198 C860.98715,354.688741 860.115671,328.9008 848.968393,309.880996 C836.729372,288.886352 813.486724,279.136785 775.859873,279.136785 C704.379393,279.136785 690.368682,316.773758 690.368682,381.924258 C690.368682,413.051932 692.83947,437.41147 705.001878,455.098738 C718.131532,474.166476 741.067726,483.034076 776.980347,483.034076 C826.17585,483.034076 853.277908,465.528954 857.673613,430.854239 L857.845993,429.828473 L821.377924,429.828473 Z M775.859873,314.425042 C812.624821,314.425042 823.101729,323.714452 824.37543,358.657591 L728.177489,358.657591 C729.776798,325.737224 742.13074,314.425042 775.859873,314.425042 L775.859873,314.425042 Z" id="Fill-6" fill="#005C3F"></path>
                <path d="M1405.39376,386.401198 C1405.39376,354.688741 1404.49355,328.9008 1393.40373,309.880996 C1381.1264,288.886352 1357.90291,279.136785 1320.28563,279.136785 C1248.77642,279.136785 1234.80402,316.773758 1234.80402,381.924258 C1234.80402,413.051932 1237.29396,437.41147 1249.45637,455.098738 C1262.55729,474.166476 1285.43602,483.034076 1321.44441,483.034076 C1370.62076,483.034076 1397.74197,465.528954 1402.14725,430.854239 L1402.28133,429.828473 L1365.81326,429.828473 C1361.92512,441.955516 1348.35494,447.391116 1321.82748,447.391116 C1278.38757,447.391116 1272.67986,431.026798 1272.02865,393.965021 L1405.39376,393.965021 L1405.39376,386.401198 Z M1272.61282,358.657591 C1274.16425,325.737224 1286.58523,314.425042 1320.28563,314.425042 C1357.041,314.425042 1367.53706,323.714452 1368.81077,358.657591 L1272.61282,358.657591 L1272.61282,358.657591 Z" id="Fill-7" fill="#005C3F"></path>
                <polygon id="Fill-8" fill="#005C3F" points="405.883263 480.004712 443.040855 480.004712 443.040855 287.112832 405.883263 287.112832"></polygon>
                <polyline id="Fill-9" fill="#005C3F" points="309.666168 479.966366 373.016032 287.074486 333.866487 287.074486 289.181609 422.859019 244.554192 287.074486 209.570511 287.074486 164.86648 422.859019 120.229487 287.074486 81.118248 287.074486 144.353191 479.966366 185.341463 479.966366 227.028833 352.15788 269.281229 479.966366 309.666168 479.966366"></polyline>
                <path d="M655.720185,401.327526 L655.720185,401.327526 C655.720185,401.461739 655.720185,206.710059 655.720185,206.710059 L618.51471,206.710059 L618.51471,289.23147 C605.567013,282.789278 589.315355,279.711981 567.901856,279.711981 C535.800761,279.711981 514.588373,286.604743 499.10285,302.087094 C484.536691,317.444819 479.384427,338.30525 479.384427,381.66542 C479.384427,424.996829 485.03468,447.23773 498.920893,461.128706 C512.816683,475.019683 533.65558,483.618858 567.901856,483.618858 C600.232791,483.618858 621.148302,476.524778 636.451867,461.205399 C649.409141,448.215563 655.720185,422.053745 655.720185,401.327526 Z M567.901856,315.795925 C617.317622,315.795925 619.280846,334.595238 619.280846,380.936838 C619.280846,426.866216 617.212279,447.23773 567.901856,447.23773 C518.581856,447.23773 516.522866,426.866216 516.522866,380.936838 C516.522866,334.595238 518.505243,315.795925 567.901856,315.795925 L567.901856,315.795925 Z" id="Fill-10" fill="#005C3F"></path>
                <path d="M934.488315,384.081242 C934.488315,359.175268 939.142591,344.987107 947.79035,336.359171 C960.105985,323.982877 981.241759,322.966698 990.43539,322.966698 C994.476757,322.966698 999.16934,323.244709 1002.53076,323.771972 L1002.53076,287.314151 C1000.25151,287.151179 997.091196,287.03614 990.43539,287.03614 C961.915981,287.03614 949.753573,292.164968 934.689426,301.061328 L934.689426,287.03614 L897.273263,287.03614 L897.301993,479.966366 L934.545775,479.966366 L934.488315,384.081242" id="Fill-11" fill="#005C3F"></path>
            </g>
        </g>
    </g>
</svg>