<?xml version="1.0" encoding="UTF-8"?>
<svg width="107px" height="33px" viewBox="0 0 107 33" version="1.1" xmlns="http://www.w3.org/2000/svg" xmlns:xlink="http://www.w3.org/1999/xlink">
    <!-- Generator: Sketch 43.2 (39069) - http://www.bohemiancoding.com/sketch -->
    <title>Wideroe_logo_white</title>
    <desc>Created with Sketch.</desc>
    <defs></defs>
    <g id="Symbols" stroke="none" stroke-width="1" fill="none" fill-rule="evenodd">
        <g id="Sidebar/Summary/Initial" transform="translate(-27.000000, -30.000000)" fill="#FFFFFF">
            <g id="Wideroe_logo" transform="translate(27.000000, 30.000000)">
                <g>
                    <path d="M66.6455929,3.48248848 C66.001117,3.83605991 64.9768198,4.79640553 63.7931197,6.12172811 C65.2857106,7.6287788 66.9941438,9.57456221 68.8368109,12.0427189 C71.7411472,8.15419355 73.6448298,5.43815668 75.019966,4.43142857 C76.3966275,3.42317972 80.8530448,2.11914747 88.7019221,0.797626728 C76.9015305,1.86366359 68.4051265,2.52138249 66.6455929,3.48248848" id="Fill-3"></path>
                    <path d="M59.1763687,3.83910138 C57.2665845,2.45903226 46.4630331,1.6256682 32.7620096,1.29186636 C39.3196471,2.27046083 47.716901,3.67410138 50.1331136,5.19331797 C52.0566262,6.39926267 54.1517449,8.66516129 57.7242005,12.7848387 L67.8939538,12.985576 C64.2444661,8.09792627 61.1189487,5.24958525 59.1763687,3.83910138" id="Fill-4"></path>
                    <path d="M88.5835365,17.5918894 C87.3777183,16.3562903 85.6830136,15.8057834 83.0951951,15.8057834 C80.5218677,15.8057834 78.8187734,16.3540092 77.5847356,17.5888479 L77.5771086,17.5918894 C76.417052,18.8176037 76.0013842,20.4774885 76.0013842,23.9364055 C76.0013842,27.3968433 76.417052,29.0529263 77.5717698,30.2717972 C78.8187734,31.515 80.5218677,32.0670276 83.0951951,32.0670276 C85.6830136,32.0670276 87.3739048,31.515 88.5835365,30.2778802 C89.9060468,28.9251843 90.1569729,27.0044931 90.1569729,23.9364055 C90.1569729,20.868318 89.9060468,18.9468664 88.5835365,17.5918894 L88.5835365,17.5918894 Z M83.0951951,29.176106 C82.1669973,29.176106 81.4508282,29.0841014 80.8910113,28.8993318 L86.9940835,20.8417051 C87.1702657,21.6180415 87.1900957,22.619447 87.1900957,23.875576 C87.1900957,27.6447235 87.0322182,29.176106 83.0951951,29.176106 L83.0951951,29.176106 Z M83.0951951,18.6700922 C84.1576269,18.6700922 84.940913,18.7788249 85.5243734,19.0107373 L79.2695252,27.2751843 C78.9972437,26.4418203 78.969024,25.3164747 78.969024,23.875576 C78.969024,20.173341 79.1261389,18.6700922 83.0951951,18.6700922 L83.0951951,18.6700922 Z" id="Fill-5"></path>
                    <path d="M59.8864362,27.7564977 C59.5729692,28.7183641 58.4907074,29.1494931 56.3856737,29.1494931 C52.9207578,29.1494931 52.470006,27.8515438 52.4204309,24.9119585 L63.0409359,24.9119585 L63.0409359,24.3120276 C63.0409359,21.7967281 62.9715308,19.7513364 62.0837558,18.242765 C61.1090337,16.5775576 59.2579769,15.8042627 56.2613547,15.8042627 C50.5686115,15.8042627 49.4527911,18.78947 49.4527911,23.9569355 C49.4527911,26.4258525 49.649566,28.3579493 50.6181865,29.7608295 C51.6638391,31.2732028 53.4904897,31.9765438 56.3505898,31.9765438 C60.2685456,31.9765438 62.4269678,30.5881106 62.777044,27.8378571 L62.7907725,27.7564977 L59.8864362,27.7564977 L59.8864362,27.7564977 Z M56.2613547,18.6031797 C59.1893345,18.6031797 60.023721,19.339977 60.1251592,22.1115207 L52.4639045,22.1115207 C52.5912742,19.5004147 53.5751487,18.6031797 56.2613547,18.6031797 L56.2613547,18.6031797 Z" id="Fill-6"></path>
                    <path d="M106.397765,24.3120276 C106.397765,21.7967281 106.326072,19.7513364 105.442873,18.242765 C104.4651,16.5775576 102.615569,15.8042627 99.6197094,15.8042627 C93.9246781,15.8042627 92.8119085,18.78947 92.8119085,23.9569355 C92.8119085,26.4258525 93.0102087,28.3579493 93.9788293,29.7608295 C95.0221938,31.2732028 96.8442682,31.9765438 99.7119953,31.9765438 C103.628426,31.9765438 105.788373,30.5881106 106.139212,27.8378571 L106.14989,27.7564977 L103.245554,27.7564977 C102.9359,28.7183641 101.855164,29.1494931 99.742503,29.1494931 C96.2829259,29.1494931 95.8283607,27.8515438 95.7764975,24.9119585 L106.397765,24.9119585 L106.397765,24.3120276 L106.397765,24.3120276 Z M95.8230218,22.1115207 C95.9465782,19.5004147 96.9357914,18.6031797 99.6197094,18.6031797 C102.546926,18.6031797 103.382838,19.339977 103.484277,22.1115207 L95.8230218,22.1115207 L95.8230218,22.1115207 Z" id="Fill-7"></path>
                    <polygon id="Fill-8" points="26.7962222 31.7362673 29.7554724 31.7362673 29.7554724 16.4368894 26.7962222 16.4368894"></polygon>
                    <polyline id="Fill-9" points="19.133442 31.7332258 24.1786586 16.4338479 21.0607682 16.4338479 17.5020409 27.2037097 13.9478899 16.4338479 11.1617711 16.4338479 7.60151847 27.2037097 4.04660473 16.4338479 0.931765059 16.4338479 5.9678293 31.7332258 9.23215687 31.7332258 12.5521611 21.5959908 15.9171641 31.7332258 19.133442 31.7332258"></polyline>
                    <path d="M46.6933665,25.4959217 L46.6933665,25.4959217 C46.6933665,25.5065668 46.6933665,10.0596774 46.6933665,10.0596774 L43.7303028,10.0596774 L43.7303028,16.6049309 C42.6991414,16.0939631 41.4048508,15.8498848 39.6994684,15.8498848 C37.1429203,15.8498848 35.4535545,16.3965899 34.2202793,17.6245853 C33.0602227,18.8426959 32.6498937,20.4972581 32.6498937,23.9364055 C32.6498937,27.3732719 33.0998828,29.1373272 34.2057882,30.2391014 C35.3124562,31.3408756 36.972077,32.0229263 39.6994684,32.0229263 C42.2743212,32.0229263 43.9400435,31.4602535 45.1588275,30.2451843 C46.1907516,29.2148848 46.6933665,27.1398387 46.6933665,25.4959217 L46.6933665,25.4959217 Z M39.6994684,18.7119124 C43.6349662,18.7119124 43.7913183,20.2029954 43.7913183,23.8786175 C43.7913183,27.5215438 43.6265765,29.1373272 39.6994684,29.1373272 C35.7715976,29.1373272 35.6076186,27.5215438 35.6076186,23.8786175 C35.6076186,20.2029954 35.7654961,18.7119124 39.6994684,18.7119124 L39.6994684,18.7119124 Z" id="Fill-10"></path>
                    <path d="M68.8946075,24.1280184 C68.8946075,22.1525806 69.2652764,21.027235 69.9539885,20.3429032 C70.9348122,19.3612673 72.6180764,19.2806682 73.3502621,19.2806682 C73.6721187,19.2806682 74.0458384,19.3027189 74.3135438,19.3445392 L74.3135438,16.4528571 C74.1320227,16.4399309 73.8803339,16.4308065 73.3502621,16.4308065 C71.0789612,16.4308065 70.1103407,16.8376037 68.910624,17.5432258 L68.910624,16.4308065 L65.9307811,16.4308065 L65.9330692,31.7332258 L68.8991836,31.7332258 L68.8946075,24.1280184" id="Fill-11"></path>
                </g>
            </g>
        </g>
    </g>
</svg>